<svg width="254" height="76" viewBox="0 0 254 76" fill="none" xmlns="http://www.w3.org/2000/svg">
<path d="M87.858 33.162C87.858 33.9753 88.3867 34.6463 89.444 35.175C90.542 35.663 91.8637 36.1103 93.409 36.517C94.9543 36.883 96.4997 37.371 98.045 37.981C99.5903 38.5503 100.892 39.5263 101.949 40.909C103.047 42.2917 103.596 44.02 103.596 46.094C103.596 49.2253 102.417 51.645 100.058 53.353C97.74 55.0203 94.8323 55.854 91.335 55.854C85.0723 55.854 80.8023 53.4343 78.525 48.595L85.357 44.752C86.2517 47.3953 88.2443 48.717 91.335 48.717C94.141 48.717 95.544 47.8427 95.544 46.094C95.544 45.2807 94.995 44.63 93.897 44.142C92.8397 43.6133 91.5383 43.1457 89.993 42.739C88.4477 42.3323 86.9023 41.824 85.357 41.214C83.8117 40.604 82.49 39.6483 81.392 38.347C80.3347 37.005 79.806 35.3377 79.806 33.345C79.806 30.3357 80.904 27.977 83.1 26.269C85.3367 24.5203 88.102 23.646 91.396 23.646C93.8767 23.646 96.1337 24.2153 98.167 25.354C100.2 26.452 101.807 28.038 102.986 30.112L96.276 33.772C95.3 31.698 93.6733 30.661 91.396 30.661C90.3793 30.661 89.5253 30.8847 88.834 31.332C88.1833 31.7793 87.858 32.3893 87.858 33.162ZM125.615 23.646C128.949 23.646 131.694 24.7643 133.85 27.001C136.046 29.2377 137.144 32.3283 137.144 36.273V55H129.275V37.249C129.275 35.2157 128.726 33.6703 127.628 32.613C126.53 31.515 125.066 30.966 123.236 30.966C121.202 30.966 119.576 31.5963 118.356 32.857C117.136 34.1177 116.526 36.0087 116.526 38.53V55H108.657V12.3H116.526V27.916C118.437 25.0693 121.467 23.646 125.615 23.646ZM147.767 20.84C146.465 20.84 145.327 20.3723 144.351 19.437C143.415 18.461 142.948 17.3223 142.948 16.021C142.948 14.7197 143.415 13.581 144.351 12.605C145.327 11.629 146.465 11.141 147.767 11.141C149.109 11.141 150.247 11.629 151.183 12.605C152.159 13.581 152.647 14.7197 152.647 16.021C152.647 17.3223 152.159 18.461 151.183 19.437C150.247 20.3723 149.109 20.84 147.767 20.84ZM143.863 55V24.5H151.732V55H143.863ZM176.685 23.646C180.792 23.646 184.29 25.2117 187.177 28.343C190.105 31.4337 191.569 35.236 191.569 39.75C191.569 44.264 190.105 48.0867 187.177 51.218C184.29 54.3087 180.792 55.854 176.685 55.854C172.415 55.854 169.121 54.3697 166.803 51.401V67.2H158.934V24.5H166.803V28.099C169.121 25.1303 172.415 23.646 176.685 23.646ZM169.182 45.972C170.768 47.558 172.781 48.351 175.221 48.351C177.661 48.351 179.674 47.558 181.26 45.972C182.887 44.3453 183.7 42.2713 183.7 39.75C183.7 37.2287 182.887 35.175 181.26 33.589C179.674 31.9623 177.661 31.149 175.221 31.149C172.781 31.149 170.768 31.9623 169.182 33.589C167.596 35.175 166.803 37.2287 166.803 39.75C166.803 42.2713 167.596 44.3453 169.182 45.972ZM214.87 23.646C218.977 23.646 222.474 25.2117 225.362 28.343C228.29 31.4337 229.754 35.236 229.754 39.75C229.754 44.264 228.29 48.0867 225.362 51.218C222.474 54.3087 218.977 55.854 214.87 55.854C210.6 55.854 207.306 54.3697 204.988 51.401V67.2H197.119V24.5H204.988V28.099C207.306 25.1303 210.6 23.646 214.87 23.646ZM207.367 45.972C208.953 47.558 210.966 48.351 213.406 48.351C215.846 48.351 217.859 47.558 219.445 45.972C221.071 44.3453 221.885 42.2713 221.885 39.75C221.885 37.2287 221.071 35.175 219.445 33.589C217.859 31.9623 215.846 31.149 213.406 31.149C210.966 31.149 208.953 31.9623 207.367 33.589C205.781 35.175 204.988 37.2287 204.988 39.75C204.988 42.2713 205.781 44.3453 207.367 45.972ZM243.172 29.746C243.904 27.794 245.104 26.33 246.771 25.354C248.479 24.378 250.37 23.89 252.444 23.89V32.674C250.045 32.3893 247.889 32.8773 245.978 34.138C244.107 35.3987 243.172 37.493 243.172 40.421V55H235.303V24.5H243.172V29.746Z" fill="white"/>
<path fill-rule="evenodd" clip-rule="evenodd" d="M5.60351 38.6536C5.60097 35.0088 4.34756 32.0566 2.80242 32.0566C1.25643 32.0566 0.00217199 35.0112 -0.000371933 38.6518C0.00217199 42.2966 1.25389 45.25 2.80072 45.25C4.34756 45.2494 5.60606 42.296 5.60351 38.6536Z" fill="white"/>
<path fill-rule="evenodd" clip-rule="evenodd" d="M40.3503 60.4219C53.1345 56.5878 62 48.2152 62 38.5081C62.0034 28.7991 53.1345 20.4277 40.3443 16.5955C47.6723 21.1756 52.5401 29.2799 52.5401 38.5075C52.5401 47.735 47.6689 55.8387 40.3503 60.4219Z" fill="white"/>
<path fill-rule="evenodd" clip-rule="evenodd" d="M31.6913 62.8262C37.6836 62.8262 42.5488 51.891 42.5488 38.4147C42.5488 24.9304 37.6844 14.002 31.6871 14.0007C28.7265 14.002 26.0391 16.6754 24.0809 21.0062C22.4239 18.0933 20.3377 16.3526 18.0734 16.3526C12.6739 16.3514 8.29375 26.1927 8.29799 38.3302C8.29375 50.467 12.6705 60.3101 18.0683 60.3052C20.3165 60.3052 22.3874 58.5921 24.0394 55.7214C26.0026 60.108 28.7045 62.8237 31.6913 62.8262ZM9.7473 38.3289C9.74306 31.5176 12.0913 25.9918 14.9831 25.9918C17.8767 25.9918 20.2207 31.5182 20.2207 38.3265C20.2207 45.1415 17.8767 50.6654 14.9831 50.6679C12.0879 50.6661 9.7439 45.1427 9.7473 38.3289ZM24.5313 54.8101C26.5623 50.7824 27.8446 44.8935 27.8446 38.3295C27.8454 31.8232 26.5861 25.9783 24.5872 21.9544C25.5625 20.9995 26.6378 20.4697 27.7657 20.4697C32.1772 20.4722 35.7492 28.5036 35.7492 38.4147C35.7492 48.3209 32.1772 56.356 27.7716 56.356C26.6166 56.3541 25.5201 55.8004 24.5313 54.8101Z" fill="white"/>
<path fill-rule="evenodd" clip-rule="evenodd" d="M5.60351 38.6536C5.60097 35.0088 4.34756 32.0566 2.80242 32.0566C1.25643 32.0566 0.00217199 35.0112 -0.000371933 38.6518C0.00217199 42.2966 1.25389 45.25 2.80072 45.25C4.34756 45.2494 5.60606 42.296 5.60351 38.6536Z" fill="white"/>
<path fill-rule="evenodd" clip-rule="evenodd" d="M40.3503 60.4219C53.1345 56.5878 62 48.2152 62 38.5081C62.0034 28.7991 53.1345 20.4277 40.3443 16.5955C47.6723 21.1756 52.5401 29.2799 52.5401 38.5075C52.5401 47.735 47.6689 55.8387 40.3503 60.4219Z" fill="white"/>
<path fill-rule="evenodd" clip-rule="evenodd" d="M31.6913 62.8262C37.6836 62.8262 42.5488 51.891 42.5488 38.4147C42.5488 24.9304 37.6844 14.002 31.6871 14.0007C28.7265 14.002 26.0391 16.6754 24.0809 21.0062C22.4239 18.0933 20.3377 16.3526 18.0734 16.3526C12.6739 16.3514 8.29375 26.1927 8.29799 38.3302C8.29375 50.467 12.6705 60.3101 18.0683 60.3052C20.3165 60.3052 22.3874 58.5921 24.0394 55.7214C26.0026 60.108 28.7045 62.8237 31.6913 62.8262ZM9.7473 38.3289C9.74306 31.5176 12.0913 25.9918 14.9831 25.9918C17.8767 25.9918 20.2207 31.5182 20.2207 38.3265C20.2207 45.1415 17.8767 50.6654 14.9831 50.6679C12.0879 50.6661 9.7439 45.1427 9.7473 38.3289ZM24.5313 54.8101C26.5623 50.7824 27.8446 44.8935 27.8446 38.3295C27.8454 31.8232 26.5861 25.9783 24.5872 21.9544C25.5625 20.9995 26.6378 20.4697 27.7657 20.4697C32.1772 20.4722 35.7492 28.5036 35.7492 38.4147C35.7492 48.3209 32.1772 56.356 27.7716 56.356C26.6166 56.3541 25.5201 55.8004 24.5313 54.8101Z" fill="white"/>
</svg>
